<?xml version="1.0" encoding="UTF-8"?>
<svg xmlns="http://www.w3.org/2000/svg" viewBox="0 0 800 800">
  <!-- Green Leaf -->
  <path d="M500,100 C650,150 650,350 500,500 C350,350 350,150 500,100 Z" fill="url(#leaf-gradient)" />
  <path d="M500,100 C450,250 450,350 500,500 C550,350 550,250 500,100 Z" fill="white" fill-opacity="0.3" />
  
  <!-- Circuit Lines -->
  <path d="M500,400 L600,400 L600,300 L700,300" stroke="#40c4e0" stroke-width="20" fill="none" />
  <path d="M500,350 L550,350 L550,200 L700,200" stroke="#40c4e0" stroke-width="20" fill="none" />
  <path d="M500,450 L650,450 L650,400 L700,400" stroke="#40c4e0" stroke-width="20" fill="none" />
  
  <!-- Circuit Endpoints -->
  <circle cx="700" cy="200" r="30" fill="#40c4e0" />
  <circle cx="700" cy="300" r="30" fill="#40c4e0" />
  <circle cx="700" cy="400" r="30" fill="#40c4e0" />
  
  <!-- Gradients -->
  <defs>
    <linearGradient id="leaf-gradient" x1="0%" y1="0%" x2="100%" y2="100%">
      <stop offset="0%" stop-color="#90ee90" />
      <stop offset="100%" stop-color="#008000" />
    </linearGradient>
  </defs>
</svg>